<?xml version="1.0" encoding="utf-8"?>
<!-- Generator: Adobe Illustrator 24.0.0, SVG Export Plug-In . SVG Version: 6.00 Build 0)  -->
<svg version="1.1" id="Layer_1" xmlns="http://www.w3.org/2000/svg" xmlns:xlink="http://www.w3.org/1999/xlink" x="0px" y="0px"
	 viewBox="0 0 512 442" style="enable-background:new 0 0 512 442;" xml:space="preserve">
<style type="text/css">
	.st0{fill:#010102;}
	.st1{fill:#1E70B6;}
	.st2{fill:#FCFDFD;}
	.st3{fill:#1D1E1C;}
</style>
<g>
	<path class="st0" d="M115.21,10.02c23.91,0.34,46.56,8.23,64.13,28.07c1.19,1.34,2.56,1.95,4.25,2.19
		c13.98,1.91,23.83,9.76,30.82,21.64c3.67,6.24,3.53,6.16,7.76,0.6c1.89-2.49,2.88-5.12,3.59-8.12c2.09-8.9,5.75-17.24,11.06-24.63
		c9.73-13.54,27.51-17.49,43.98-9.82c12,5.6,22.1,13.38,26.51,26.65c1.04,3.13,4.24,2.62,6.23,4.1c3.15,2.35,5.95,1.78,9.4,0.08
		c10.76-5.31,21.99-6.45,33.5-2.28c3.14,1.13,8.56-1.14,10.05-4.15c1.34-2.7,2.51-5.5,3.86-8.2c7.85-15.73,23.71-23.39,40.56-18.34
		c17.94,5.38,31.67,15.7,35.22,35.7c0.14,0.8,0.3,1.71,0.77,2.32c4.8,6.24,6.89,13.35,6.99,21.13c0.02,1.2,0.76,2.03,1.44,2.89
		c8.02,10.17,9.15,21.53,5.35,33.5c-4.69,14.78-12.69,27.98-20.63,41.14c-8.8,14.59-18.06,28.89-30.16,41.08
		c-3.4,3.43-7.17,6.39-11.09,9.17c-1.83,1.3-4.34,2.17-2.79,5.38c1.51,3.11,1.35,6.93,6.88,6.88c31.15-0.29,62.3-0.14,93.45-0.14
		c1.1,0,2.2-0.01,3.29,0c6.7,0.12,10.31,4.62,8.84,11.18c-2.94,13.13-5.95,26.24-8.94,39.35c-2.15,9.41-6.74,17.36-14.27,23.47
		c-1.65,1.34-2.07,2.35-0.91,4.41c12.88,22.73,10.73,45.39-1.25,67.53c-10.2,18.85-26.46,31.61-44.63,42.18
		c-19.7,11.46-40.89,19.26-62.7,25.55c-4.61,1.33-9.15,2.9-13.73,4.34c-8.52,2.67-15.81,0.67-21.28-6.4
		c-7.73-10.01-11.49-21.51-11.08-34.15c0.13-3.96-0.96-4.45-4.56-4c-16.15,2.02-32.04,0.71-47.39-5
		c-12.1-4.5-22.44-11.5-29.96-22.21c-1.38-1.97-2.42-2.45-4.5-0.72c-11.15,9.21-23.77,12.06-37.76,8.16
		c-2.37-0.66-3.35-0.23-3.88,2.36c-2.53,12.45-11.34,20.45-20.67,27.78c-4.77,3.74-10.5,2.24-15.83,0.63
		c-6.81-2.06-13.2-5.33-20.35-6.43c-17.08-2.63-34.21-1.55-51.33-1.01c-8.77,0.27-17.48,1.54-26.3,1.15
		c-26.78-1.19-41.86-18.16-40.42-45c0.84-15.66,4.95-30.38,11.83-44.26c11.73-23.64,21.52-48.11,31.95-72.3
		c1.88-4.37,1.88-4.51-2.74-4.85c-27.75-2.05-44.24-25.78-44.65-49.48c-0.28-15.93,1.98-31.5,6.21-46.79
		c0.79-2.88,0.08-4.1-2.35-5.5C13.53,119.05,4.65,107.99,3.1,91.98c-0.74-7.59,1.33-14.71,4.18-21.61
		C13.63,55,24.59,43.44,37.88,33.95C58.42,19.29,87.95,10.05,115.21,10.02z M451.7,285.56c4.82-1.32,8.74-2.56,12.74-3.46
		c10.43-2.35,16.22-9.07,18.54-19.21c1.86-8.16,3.51-16.38,5.71-24.45c1.09-4-0.14-4.47-3.72-4.46c-29.37,0.12-58.73,0.03-88.1,0.11
		c-4.78,0.01-8.73-1.38-11.22-5.52c-3.98-6.63-6.98-13.72-7.89-21.47c-0.62-5.27,0.95-9.98,5.71-12.78
		c12.27-7.21,21.28-17.62,29.18-29.15c11.88-17.35,23.11-35.1,30.91-54.73c4.33-10.89,2.41-17-6.76-23.99
		c-1.85-1.41-2.45-2.73-1.49-4.82c1.54-3.39,2.63-7.5,0.42-10.29c-5.07-6.4-5.58-14.37-8.69-21.3c-4.37-9.74-13.4-14.73-23.82-16.2
		c-7.9-1.12-13.87,2.52-17.39,9.73c-2.22,4.56-4.31,9.2-6.13,13.93c-0.96,2.49-2.36,3.79-4.95,4.13c-3.98,0.52-7.39,2.34-9.71,5.6
		c-2.17,3.04-4.26,2.88-7.11,1.02c-11.57-7.55-22.81-6.12-33.74,1.53c-0.79,0.55-1.68,0.99-2.35,1.66c-2.47,2.45-4.63,2.44-7.39,0.1
		c-5.44-4.63-11.77-7.58-19.01-8.01c-2.61-0.15-3.13-1.61-3.23-3.74c-0.23-5.32-1.26-10.41-5-14.48
		c-5.03-5.47-11.05-9.51-18.27-11.36c-8.89-2.29-16.4,1.28-20.48,9.57c-3.02,6.14-6.17,12.26-6.95,19.25
		c-0.26,2.35-1.33,4.53-2.8,6.35c-2.78,3.44-5.01,7.19-7.01,11.11c-1.95,3.8-5.33,5.77-9.46,5.31c-9.6-1.07-17.52-4.84-22.23-14.07
		c-5.07-9.94-13.32-15.08-24.68-14.48c-2.48,0.13-3.97-0.7-5.39-2.73c-10.99-15.72-26.48-23.98-45.2-26.16
		c-28.24-3.28-53.84,4.53-77.1,20.17C35.35,56.49,25.8,67.35,21.31,82c-2.52,8.21-0.87,15.48,4.5,21.95
		c5.46,6.59,12.68,10.29,20.87,12.34c5.19,1.3,5.19,1.42,3.48,6.42c-6.1,17.91-10.18,36.19-9.94,55.25
		c0.24,18.41,11.56,31.51,29.07,33.62c5.4,0.65,10.65-0.26,15.83-1.78c5.33-1.57,10.68-3.1,16.12-4.68
		c0.43,2.14-0.63,3.35-1.24,4.64c-16.57,35.12-30.12,71.57-47.23,106.45c-5.92,12.06-9.18,24.93-8.89,38.56
		c0.3,13.91,7.39,21.58,21.26,22.91c6.47,0.62,12.88,0.03,19.3-0.46c16.02-1.23,32.08-1.51,48.11-0.95
		c11.96,0.42,23.67,2.64,34.75,7.6c1.97,0.88,4.27,2.51,6.54,0.59c7.94-6.71,13.48-14.28,10.71-25.7
		c-1.9-7.85,4.4-13.19,12.03-10.51c3.86,1.36,7.43,3.53,11.25,5.01c9.86,3.84,18.54,1.57,26.15-5.52c3.13-2.91,5.8-6.21,8.26-9.71
		c2.73-3.88,5.58-7.67,8.73-11.98c1.88,5.73,3.55,10.66,5.11,15.63c3.35,10.62,10.03,18.54,19.73,23.78
		c16.94,9.15,35.07,10.59,53.55,6.77c23.3-4.81,41.66-16.49,51.02-39.54c0.44-1.07,1.02-1.83,2.19-2.24
		c10.67-3.74,21.58-6.24,32.94-6.54c1.79-0.05,2.44,0.56,2.28,2.39c-0.72,8.6-2.43,16.74-8.21,23.7
		c-7.17,8.64-16.07,14.89-25.86,20.01c-7.78,4.07-15.94,7.29-24.21,10.26c-6.9,2.48-12.2,6.81-12.68,14.63
		c-0.49,8.04,2.2,15.38,6.7,22.04c1.05,1.55,2.23,2.02,4.18,1.31c4.51-1.63,9.09-3.05,13.7-4.38c22.08-6.36,43.48-14.36,63.07-26.59
		c14.02-8.75,26.35-19.27,34.37-34.12c9.09-16.82,12.33-43.35-9.74-60.7C456.7,290.57,454.57,288.25,451.7,285.56z"/>
	<path class="st1" d="M451.7,285.56c2.86,2.69,4.99,5.01,7.44,6.93c22.08,17.35,18.83,43.88,9.74,60.7
		c-8.02,14.85-20.35,25.37-34.37,34.12c-19.6,12.23-40.99,20.23-63.07,26.59c-4.61,1.33-9.19,2.75-13.7,4.38
		c-1.95,0.71-3.13,0.23-4.18-1.31c-4.5-6.66-7.19-14-6.7-22.04c0.48-7.82,5.78-12.16,12.68-14.63c8.27-2.97,16.43-6.19,24.21-10.26
		c9.79-5.12,18.69-11.37,25.86-20.01c5.77-6.96,7.48-15.09,8.21-23.7c0.15-1.83-0.5-2.44-2.28-2.39c-11.36,0.3-22.27,2.8-32.94,6.54
		c-1.17,0.41-1.75,1.16-2.19,2.24c-9.36,23.06-27.72,34.73-51.02,39.54c-18.48,3.82-36.61,2.38-53.55-6.77
		c-9.7-5.24-16.38-13.16-19.73-23.78c-1.57-4.97-3.23-9.9-5.11-15.63c-3.15,4.31-6,8.1-8.73,11.98c-2.46,3.49-5.13,6.79-8.26,9.71
		c-7.61,7.09-16.28,9.36-26.15,5.52c-3.82-1.49-7.39-3.66-11.25-5.01c-7.63-2.68-13.94,2.66-12.03,10.51
		c2.77,11.42-2.77,18.98-10.71,25.7c-2.27,1.92-4.58,0.29-6.54-0.59c-11.07-4.96-22.78-7.19-34.75-7.6
		c-16.04-0.56-32.09-0.28-48.11,0.95c-6.42,0.49-12.83,1.09-19.3,0.46c-13.87-1.33-20.96-9-21.26-22.91
		c-0.29-13.63,2.97-26.5,8.89-38.56c17.12-34.88,30.66-71.34,47.23-106.45c0.61-1.29,1.68-2.49,1.24-4.64
		c-5.45,1.58-10.79,3.12-16.12,4.68c-5.18,1.52-10.43,2.42-15.83,1.78c-17.5-2.1-28.83-15.21-29.07-33.62
		c-0.24-19.05,3.84-37.33,9.94-55.25c1.7-5.01,1.71-5.12-3.48-6.42c-8.2-2.06-15.41-5.75-20.87-12.34
		c-5.37-6.48-7.02-13.74-4.5-21.95c4.49-14.64,14.04-25.5,26.33-33.77c23.26-15.64,48.86-23.45,77.1-20.17
		c18.72,2.18,34.21,10.43,45.2,26.16c1.42,2.03,2.91,2.86,5.39,2.73c11.36-0.6,19.61,4.54,24.68,14.48
		c4.71,9.23,12.63,13,22.23,14.07c4.13,0.46,7.51-1.51,9.46-5.31c2.01-3.92,4.23-7.67,7.01-11.11c1.47-1.82,2.53-4,2.8-6.35
		c0.78-6.99,3.93-13.11,6.95-19.25c4.08-8.29,11.59-11.86,20.48-9.57c7.21,1.86,13.24,5.9,18.27,11.36c3.75,4.07,4.78,9.16,5,14.48
		c0.09,2.14,0.61,3.59,3.23,3.74c7.24,0.43,13.57,3.38,19.01,8.01c2.75,2.34,4.92,2.35,7.39-0.1c0.67-0.67,1.57-1.11,2.35-1.66
		c10.93-7.65,22.17-9.08,33.74-1.53c2.85,1.86,4.95,2.03,7.11-1.02c2.32-3.26,5.73-5.08,9.71-5.6c2.59-0.34,4-1.64,4.95-4.13
		c1.82-4.73,3.91-9.37,6.13-13.93c3.51-7.22,9.49-10.85,17.39-9.73c10.42,1.47,19.46,6.47,23.82,16.2c3.11,6.93,3.61,14.9,8.69,21.3
		c2.21,2.79,1.12,6.9-0.42,10.29c-0.95,2.1-0.36,3.41,1.49,4.82c9.17,6.99,11.09,13.09,6.76,23.99
		c-7.8,19.63-19.03,37.38-30.91,54.73c-7.9,11.54-16.91,21.94-29.18,29.15c-4.76,2.8-6.33,7.51-5.71,12.78
		c0.91,7.75,3.91,14.84,7.89,21.47c2.49,4.14,6.44,5.54,11.22,5.52c29.37-0.08,58.73,0.01,88.1-0.11c3.58-0.01,4.81,0.46,3.72,4.46
		c-2.2,8.07-3.84,16.29-5.71,24.45c-2.32,10.14-8.11,16.86-18.54,19.21C460.45,283,456.52,284.24,451.7,285.56z M243.99,156.66
		l0.06,0.11c-0.67-2.91,1.12-5.25,1.98-7.74c6.15-17.9,14.48-34.93,21.04-52.67c3.77-10.2,2.45-13.74-6.61-19.6
		c-9.37-6.06-14.57-4.58-18.93,5.56c-4.93,11.46-9.12,23.21-13.25,34.99c-1.3,3.71-2.15,7.6-4.62,10.91
		c-5.92,7.93-12.13,15.61-18.69,23.01c-0.89,1-1.61,2.75-3.59,1.83c5.97-14.64,12.03-29.18,17.82-43.82
		c3.68-9.32-1.03-16.75-10.96-17.91c-4.32-0.5-8.43,0.36-12.54,1.58c-1.3,0.39-2.57,1.65-4.2,0.71c1.67-4,3.28-7.93,3.1-12.33
		c-0.27-6.62-4.93-11.76-12.6-13.88c-2.69-0.74-5.35-1.02-8.09-0.17c-3.05,0.95-3.91,3.81-5.32,6.45
		c-7.83-23.33-24.84-34.46-47.93-36.24c-26.61-2.05-50.69,5.8-71.85,22.09c-8.63,6.64-15.19,15-18.3,25.74
		c-1.4,4.84-0.23,8.98,2.88,12.65c3.17,3.74,7.21,6.32,11.89,7.77c6.57,2.03,9.26,0.6,11.58-5.81c4.77-13.16,15.28-20.4,27.09-26.33
		c-5.32,9.93-10.74,19.71-15.41,29.88c-10.75,23.38-18.64,47.48-18.5,73.61c0.1,18.77,13.78,28.88,31.82,23.66
		c2.93-0.85,3.14-1.89,2.4-4.51c-3.86-13.61-3.58-27.37-1.23-41.21c0.42-2.46,1.19-3.3,3.83-3.46c31.35-1.9,56.08-15.46,73.23-42.16
		c0.47-0.74,0.6-1.91,1.94-1.92c2.71,3.9,6.03,7.07,10.93,8.07c4.65,0.95,9.07,0.3,14.02-2.99c-0.92,2.58-1.41,3.97-1.92,5.36
		c-4.92,13.38-9.82,26.77-14.77,40.14c-2.14,5.77-2.49,11.41,0.27,17.14c4.88,10.11,19.03,16.91,30.87,7.46
		c4.67-3.73,8.56-8.22,12.85-12.7c0.39,0.89,0.68,1.36,0.81,1.87c3.26,12.49,19.09,21.84,32.83,8.97
		c3.89-3.65,7.38-7.66,11.26-11.79c0.48,1.63,0.77,2.91,1.24,4.12c3.17,8.08,8.8,13.13,17.64,14.02c4.38,0.44,5.9-0.84,5.82-5.24
		c-0.09-4.97,1.38-9.4,3.51-13.79c8.26-17.02,19.02-32.39,30.75-47.13c0.87-1.1,1.54-2.56,3.19-2.94c0.5,1.7-0.5,3.01-0.99,4.37
		c-4.34,12.28-8.88,24.49-13.12,36.8c-3.36,9.77-0.36,18.51,7.88,24.19c8.01,5.52,16.74,4.81,24.96-1.88
		c4.15-3.38,7.45-7.61,11.41-11.56c2.25,8.07,6.86,13.68,14.6,16.26c9.02,3,15.98-0.98,22.25-6.99c9.8-9.39,17.36-20.51,24.55-31.9
		c8.2-13,16.18-26.14,21.68-40.58c2.18-5.73,1.55-9.41-1.31-10.83c-3.15-1.57-6.61,0.41-9.53,5.8
		c-10.27,18.96-23.56,35.7-37.65,51.86c-1.01,1.15-1.8,2.49-2.7,3.75c-0.39-0.34-0.78-0.67-1.17-1.01c0.49-1.55,0.93-3.11,1.49-4.64
		c7.12-19.44,15.09-38.55,22.87-57.73c2.59-6.39,2.62-6.37,9.63-6.38c6.08,0,11.78-6.96,10.57-12.93c-0.5-2.43-2.35-3.3-4.52-3.49
		c-1.89-0.16-3.8-0.03-6.03-0.03c1.05-3.4,2.07-6.35,2.88-9.36c1.12-4.17,0.32-8-2.9-10.96c-3.14-2.89-6.67-5.31-10.76-6.68
		c-5.59-1.87-8.87-0.58-11.33,4.8c-2.85,6.23-5.53,12.55-7.99,18.94c-0.94,2.43-2.1,3.31-4.74,3.28c-8.12-0.1-8.58,0.35-11.13,7.93
		c-2.21,6.56-1.21,8.22,5.52,8.43c2.64,0.08,2.49,0.95,1.76,2.94c-3.37,9.13-6.59,18.32-9.93,27.46c-0.51,1.4-1.23,2.78-2.09,3.99
		c-7.97,11.19-16.3,22.09-25.63,32.2c-0.67,0.73-1.14,1.96-2.64,1.48c-0.29-1.73,0.62-3.19,1.17-4.67
		c2.98-7.96,6.06-15.88,9.1-23.82c4.36-11.39,10.04-22.25,13.64-33.95c1.23-4.01,1.59-8.15-1.54-11.25
		c-8.95-8.89-17.25-11.58-27.19-5.8c-4.18,2.43-7.84,5.51-11.32,8.85c-2.24,2.15-4.57,4.2-7.17,6.58c1.44-8.2-4.05-11.95-9.8-15.37
		c-8.39-5-13.24-3.37-17.19,5.66c-4.61,10.55-8.75,21.31-12.31,32.25c-2.24,6.89-5.47,13.07-10.04,18.68
		C257.91,140.88,251.87,149.56,243.99,156.66z M223.84,250.21c-0.35-2.13,0.54-3.26,1.11-4.45c4.36-9.17,8.92-18.24,13.11-27.48
		c5.67-12.5,1.72-19.59-11.88-21.79c-1.48-0.24-3.01-0.12-4.51-0.26c-3.16-0.29-4.88,0.91-6.03,4.1
		c-9.88,27.21-19.97,54.35-29.96,81.52c-4,10.89-7.94,21.8-11.9,32.7c-0.53-2.54-0.5-4.96-0.22-7.35
		c2.26-19.8,8.85-38.14,18.57-55.44c3.27-5.82,2.88-8.16-1.81-12.93c-2.46-2.5-5.45-4.02-8.83-5.02c-4.06-1.2-7.47-0.47-9.72,3.12
		c-1.77,2.82-3.37,2.78-6.26,1.5c-13.31-5.88-21.81-3.37-30.05,8.65c-5.83,8.5-10.77,17.53-15.61,26.62
		c-5.75,10.78-9.55,22.14-10.73,34.35c-0.56,5.84-0.28,11.5,2.43,16.87c7.56,14.95,20.63,16.24,30.72,3.02
		c1.27-1.66,2.04-3.8,4.09-5.07c2.37,13.04,9.77,15.27,20.86,12.61c4.66-1.12,6.05-3.73,6.01-8.42c-0.01-1.5-0.6-3.14,0.4-4.73
		c1.52,1.46,2.53,2.89,3.32,4.52c1.64,3.41,4.14,6.16,7.15,8.37c3.5,2.57,7.24,4.25,11.17,0.74c1.65-1.47,2.45,0.01,3.37,0.85
		c3.84,3.46,8.34,5.73,13.14,7.49c5.59,2.05,10.5,0.82,14.87-3.05c3.94-3.49,7.08-7.65,9.85-12.09
		c11.83-18.93,19.74-39.46,24.68-61.17c1.59-6.98,2.39-14.09,1.71-21.27c-0.75-7.89-5.02-11.48-12.89-10.95
		c-5.47,0.37-10.34,2.43-14.95,5.3C231.07,243.56,227.85,246.97,223.84,250.21z M299.35,281c-2.52,1.48-5,2.89-7.43,4.39
		c-9.44,5.83-17.89,12.68-23.38,22.63c-11.62,21.03-3.16,44.16,19.31,52.32c11.3,4.1,23.02,4.96,34.85,3.23
		c17.42-2.54,32.63-9.33,43.28-24.1c11.52-15.98,9.91-36.73-3.93-50.66c-3.38-3.4-7.06-6.5-10.69-9.63
		c-4.39-3.78-4.44-3.72,0.26-6.77c9.11-5.92,16.92-13.08,21.77-23.02c8.65-17.72,1.5-37.45-17.09-43.83
		c-21.48-7.38-42.03-4.56-59.98,10.15c-16.49,13.51-21.17,38.69-5.01,56.75C293.85,275.3,296.55,278.02,299.35,281z M377.44,321.88
		c2.23-0.72,3.65-1.2,5.07-1.64c10.23-3.16,20.49-6.31,31.39-5.39c8.48,0.72,12.69,5.48,12.9,14.05c0.24,9.58-2.77,18.04-8.52,25.64
		c-8.76,11.58-20.39,19.42-33.21,25.68c-7.26,3.55-14.75,6.57-22.39,9.24c-6.22,2.18-7.68,5.99-4.91,11.93
		c0.52,1.12,1.25,2.13,1.76,3.25c0.91,2,2.3,2.4,4.33,1.74c5.2-1.7,10.48-3.18,15.66-4.94c21.75-7.37,42.89-16.04,61.2-30.36
		c9.99-7.81,18.2-17.08,22.61-29.23c7.37-20.28,0.26-38.25-17.98-45.49c-4.1-1.62-8.38-2.49-12.78-2.92
		c-9.36-0.91-18.52,0.44-28.16,2.7c2.12-6.46,4.29-12.33,5.95-18.34c1.02-3.72,2.65-5.08,6.72-5c13.99,0.27,27.99,0.2,41.98-0.07
		c8.42-0.16,12.55-3.82,14.49-11.88c1.12-4.67,2.05-9.38,3.21-14.04c0.57-2.25,0.24-3.22-2.38-3.22c-24.7,0.07-49.4,0.06-74.1,0.01
		c-1.98,0-2.85,0.63-3.33,2.66c-1.57,6.67-3.41,13.28-5.13,19.91C387.09,284.49,382.37,302.79,377.44,321.88z M113.41,340.55
		c-7.55-0.11-15.1-0.06-22.61,0.77c-3.26,0.36-3.88-0.97-3.04-3.75c1.23-4.07,2.27-8.21,3.69-12.22
		c14.3-40.57,31.5-79.93,49.74-118.85c1.34-2.87,1.64-5.36,0.45-8.22c-3.1-7.43-16.86-12.4-23.82-8.4
		c-1.51,0.87-4.01,2.15-2.54,4.29c1.85,2.69,0.59,4.67-0.41,6.86c-6.26,13.74-12.74,27.39-18.78,41.22
		C82.95,272.33,70.17,302.54,60.6,334c-0.81,2.67-1.72,5.31,0.3,7.82c1.83,2.27,0.59,2.82-1.55,3.33c-2.03,0.48-4.59,0.23-5.61,2.69
		c-4.2,10.08,2.94,20.81,13.78,20.75c1.92-0.01,3.85-0.05,5.75-0.23c18.46-1.74,36.97-2.42,55.49-2.03
		c13.31,0.28,26.58,1.37,39.25,6.07c4.11,1.53,5.97,0.51,7.11-3.78c2.55-9.59-5.04-21.84-14.67-23.68
		C144.91,341.96,129.22,340.65,113.41,340.55z M282.22,57.54c0.02-1.14-0.3-3.33-1.78-5.07c-4.08-4.83-9.09-8.29-15.41-9.36
		c-3.5-0.59-6.14,1.13-7.68,4.25c-1.63,3.3-2.99,6.74-4.55,10.08c-1.74,3.73-0.77,6.92,1.84,9.78c3.93,4.3,9.15,6.31,14.51,8.03
		c4.06,1.3,7.16-0.47,9.02-3.79C280.37,67.53,281.89,63.24,282.22,57.54z"/>
	<path class="st2" d="M243.99,156.66c7.89-7.1,13.92-15.78,20.57-23.94c4.57-5.61,7.79-11.79,10.04-18.68
		c3.56-10.94,7.7-21.7,12.31-32.25c3.94-9.03,8.8-10.66,17.19-5.66c5.75,3.43,11.23,7.18,9.8,15.37c2.6-2.38,4.93-4.43,7.17-6.58
		c3.47-3.34,7.14-6.42,11.32-8.85c9.94-5.78,18.24-3.09,27.19,5.8c3.13,3.11,2.77,7.25,1.54,11.25c-3.6,11.7-9.28,22.56-13.64,33.95
		c-3.04,7.94-6.12,15.86-9.1,23.82c-0.56,1.48-1.46,2.94-1.17,4.67c1.5,0.48,1.97-0.75,2.64-1.48c9.32-10.11,17.66-21.01,25.63-32.2
		c0.86-1.21,1.58-2.59,2.09-3.99c3.34-9.14,6.56-18.33,9.93-27.46c0.73-1.99,0.89-2.86-1.76-2.94c-6.73-0.21-7.73-1.87-5.52-8.43
		c2.55-7.58,3.01-8.04,11.13-7.93c2.64,0.03,3.8-0.84,4.74-3.28c2.46-6.39,5.14-12.71,7.99-18.94c2.46-5.38,5.74-6.67,11.33-4.8
		c4.1,1.37,7.62,3.8,10.76,6.68c3.22,2.96,4.02,6.79,2.9,10.96c-0.81,3-1.82,5.95-2.88,9.36c2.23,0,4.15-0.13,6.03,0.03
		c2.17,0.19,4.02,1.06,4.52,3.49c1.22,5.97-4.48,12.92-10.57,12.93c-7,0-7.04-0.01-9.63,6.38c-7.77,19.18-15.75,38.29-22.87,57.73
		c-0.56,1.52-0.99,3.09-1.49,4.64c0.39,0.34,0.78,0.67,1.17,1.01c0.89-1.25,1.69-2.59,2.7-3.75c14.09-16.17,27.38-32.91,37.65-51.86
		c2.92-5.39,6.38-7.37,9.53-5.8c2.86,1.42,3.5,5.1,1.31,10.83c-5.5,14.44-13.48,27.58-21.68,40.58
		c-7.19,11.39-14.75,22.52-24.55,31.9c-6.26,6-13.22,9.98-22.25,6.99c-7.74-2.57-12.36-8.19-14.6-16.26
		c-3.96,3.95-7.26,8.18-11.41,11.56c-8.22,6.7-16.95,7.41-24.96,1.88c-8.24-5.68-11.24-14.42-7.88-24.19
		c4.24-12.31,8.78-24.52,13.12-36.8c0.48-1.37,1.49-2.67,0.99-4.37c-1.65,0.38-2.32,1.84-3.19,2.94
		c-11.73,14.74-22.49,30.11-30.75,47.13c-2.13,4.38-3.61,8.82-3.51,13.79c0.08,4.4-1.44,5.68-5.82,5.24
		c-8.84-0.89-14.47-5.95-17.64-14.02c-0.47-1.21-0.76-2.5-1.24-4.12c-3.88,4.13-7.37,8.14-11.26,11.79
		c-13.74,12.87-29.56,3.52-32.83-8.97c-0.13-0.51-0.42-0.98-0.81-1.87c-4.3,4.49-8.19,8.98-12.85,12.7
		c-11.84,9.45-25.99,2.65-30.87-7.46c-2.77-5.74-2.41-11.37-0.27-17.14c4.95-13.37,9.85-26.76,14.77-40.14
		c0.51-1.39,1-2.78,1.92-5.36c-4.94,3.29-9.37,3.94-14.02,2.99c-4.89-1-8.21-4.17-10.93-8.07c-1.33,0.02-1.46,1.19-1.94,1.92
		c-17.15,26.71-41.88,40.26-73.23,42.16c-2.64,0.16-3.42,1-3.83,3.46c-2.34,13.84-2.63,27.6,1.23,41.21
		c0.74,2.62,0.53,3.66-2.4,4.51c-18.04,5.22-31.72-4.89-31.82-23.66c-0.14-26.14,7.75-50.23,18.5-73.61
		c4.67-10.17,10.09-19.95,15.41-29.88C72.15,79.46,61.65,86.7,56.87,99.86c-2.33,6.42-5.02,7.85-11.58,5.81
		c-4.69-1.45-8.72-4.03-11.89-7.77c-3.11-3.67-4.28-7.81-2.88-12.65c3.11-10.74,9.67-19.1,18.3-25.74
		c21.15-16.29,45.24-24.14,71.85-22.09c23.09,1.78,40.1,12.91,47.93,36.24c1.41-2.64,2.26-5.5,5.32-6.45
		c2.74-0.85,5.39-0.57,8.09,0.17c7.68,2.12,12.34,7.27,12.6,13.88c0.18,4.4-1.43,8.33-3.1,12.33c1.63,0.94,2.9-0.32,4.2-0.71
		c4.11-1.22,8.22-2.08,12.54-1.58c9.93,1.16,14.64,8.59,10.96,17.91c-5.79,14.65-11.85,29.18-17.82,43.82
		c1.98,0.92,2.7-0.83,3.59-1.83c6.56-7.4,12.77-15.08,18.69-23.01c2.47-3.3,3.32-7.19,4.62-10.91c4.12-11.78,8.31-23.52,13.25-34.99
		c4.36-10.14,9.57-11.62,18.93-5.56c9.07,5.86,10.38,9.4,6.61,19.6c-6.56,17.74-14.89,34.77-21.04,52.67
		c-0.86,2.5-2.65,4.83-1.98,7.74c-0.17-0.05-0.34-0.09-0.51-0.13c0.02,0.17,0.05,0.34,0.07,0.5
		C243.73,156.98,243.86,156.82,243.99,156.66z M94.38,69.26c5,1.23,9.26,3.62,13.23,6.57c5.68,4.23,6.72,7.94,3.43,14.15
		c-4.56,8.59-9.43,17.03-14.12,25.55c-1.26,2.29-2.35,4.66-3.52,7c2.39-0.32,4.09-1.14,5.73-2.07c10.99-6.21,20.4-14.32,28.53-23.93
		c4.53-5.35,8.79-10.92,10.98-17.72c2.02-6.27,0.54-9.51-5.45-12.18c-1.37-0.61-2.8-1.19-4.26-1.49
		C117.02,62.76,105.6,64.86,94.38,69.26z"/>
	<path class="st3" d="M223.84,250.21c4.02-3.25,7.23-6.65,11.2-9.12c4.61-2.87,9.48-4.94,14.95-5.3
		c7.87-0.53,12.14,3.07,12.89,10.95c0.68,7.18-0.12,14.28-1.71,21.27c-4.94,21.71-12.85,42.24-24.68,61.17
		c-2.77,4.44-5.91,8.6-9.85,12.09c-4.37,3.87-9.28,5.1-14.87,3.05c-4.8-1.76-9.3-4.02-13.14-7.49c-0.93-0.84-1.72-2.33-3.37-0.85
		c-3.93,3.51-7.67,1.83-11.17-0.74c-3.01-2.21-5.51-4.96-7.15-8.37c-0.78-1.63-1.8-3.06-3.32-4.52c-1,1.59-0.41,3.23-0.4,4.73
		c0.04,4.69-1.36,7.3-6.01,8.42c-11.08,2.66-18.49,0.43-20.86-12.61c-2.05,1.26-2.82,3.4-4.09,5.07
		c-10.09,13.21-23.16,11.93-30.72-3.02c-2.72-5.37-2.99-11.03-2.43-16.87c1.17-12.21,4.98-23.57,10.73-34.35
		c4.85-9.09,9.79-18.12,15.61-26.62c8.24-12.02,16.74-14.53,30.05-8.65c2.89,1.28,4.49,1.32,6.26-1.5c2.25-3.58,5.66-4.31,9.72-3.12
		c3.38,1,6.37,2.52,8.83,5.02c4.7,4.77,5.08,7.11,1.81,12.93c-9.72,17.3-16.31,35.64-18.57,55.44c-0.27,2.39-0.31,4.82,0.22,7.35
		c3.96-10.9,7.89-21.82,11.9-32.7c10-27.17,20.08-54.31,29.96-81.52c1.16-3.19,2.87-4.39,6.03-4.1c1.5,0.14,3.03,0.02,4.51,0.26
		c13.6,2.2,17.55,9.29,11.88,21.79c-4.19,9.24-8.75,18.32-13.11,27.48C224.38,246.95,223.49,248.09,223.84,250.21z M160.69,255.47
		c-12.13,15.67-21.29,32.85-26.09,52.19c-0.2,0.79-0.55,1.83,0.39,2.58c5.48-5.77,22.17-40.37,26.22-54.27c0-0.3,0-0.61,0-0.91
		C161.04,255.2,160.87,255.33,160.69,255.47z M233.79,265.24c-4.9,4.61-8.84,9.85-12.61,15.2c-7.04,9.96-13.83,20.06-18.57,31.42
		c-1.64,3.94,0.34,5.39,3.28,6.98c3.14,1.69,4.91,0.75,6.56-2.2c5.83-10.42,10.67-21.3,15.11-32.37
		C230.03,278.08,232.49,271.88,233.79,265.24z"/>
	<path class="st2" d="M299.35,281c-2.8-2.97-5.49-5.7-8.05-8.55c-16.16-18.06-11.48-43.23,5.01-56.75
		c17.95-14.71,38.5-17.53,59.98-10.15c18.59,6.39,25.74,26.12,17.09,43.83c-4.85,9.95-12.66,17.11-21.77,23.02
		c-4.7,3.05-4.65,2.99-0.26,6.77c3.64,3.13,7.32,6.23,10.69,9.63c13.85,13.93,15.45,34.68,3.93,50.66
		c-10.65,14.77-25.85,21.57-43.28,24.1c-11.83,1.72-23.55,0.87-34.85-3.23c-22.47-8.15-30.93-31.29-19.31-52.32
		c5.49-9.94,13.94-16.8,23.38-22.63C294.35,283.89,296.83,282.48,299.35,281z M295.68,323.87c0.08,1.92-0.03,3.87,0.29,5.74
		c1.22,7.18,3.69,13.59,11.37,16.2c9.67,3.29,21.46-0.53,27.08-8.68c5.88-8.52,5.33-19.95-1.48-28.23
		c-4.72-5.74-10.39-10.5-16.13-15.18c-1.18-0.97-2.18-1.42-3.59-0.28C303.46,301.32,295.37,310.15,295.68,323.87z M317.21,240
		c-0.39,9.95,5.99,16.99,13.26,23.56c1.08,0.98,1.85,0.53,2.85-0.08c10.65-6.58,16.79-21.58,13.64-33.68
		c-1.46-5.59-4.7-9.59-10.68-10.59c-6.18-1.03-11.37,0.65-15.03,6.04C318.39,229.47,317.13,234.15,317.21,240z"/>
	<path class="st2" d="M377.44,321.88c4.93-19.1,9.65-37.39,14.38-55.68c1.72-6.64,3.55-13.24,5.13-19.91
		c0.48-2.03,1.35-2.66,3.33-2.66c24.7,0.04,49.4,0.06,74.1-0.01c2.63-0.01,2.95,0.96,2.38,3.22c-1.17,4.65-2.09,9.37-3.21,14.04
		c-1.93,8.06-6.07,11.71-14.49,11.88c-13.99,0.27-27.99,0.34-41.98,0.07c-4.07-0.08-5.7,1.29-6.72,5
		c-1.65,6.01-3.82,11.88-5.95,18.34c9.64-2.26,18.8-3.61,28.16-2.7c4.4,0.43,8.68,1.29,12.78,2.92
		c18.25,7.24,25.35,25.21,17.98,45.49c-4.42,12.15-12.62,21.42-22.61,29.23c-18.31,14.32-39.44,22.98-61.2,30.36
		c-5.18,1.76-10.46,3.24-15.66,4.94c-2.02,0.66-3.42,0.27-4.33-1.74c-0.51-1.12-1.24-2.14-1.76-3.25
		c-2.77-5.94-1.31-9.75,4.91-11.93c7.64-2.67,15.13-5.69,22.39-9.24c12.82-6.27,24.45-14.11,33.21-25.68
		c5.75-7.6,8.76-16.07,8.52-25.64c-0.21-8.57-4.42-13.33-12.9-14.05c-10.9-0.93-21.16,2.23-31.39,5.39
		C381.09,320.68,379.67,321.16,377.44,321.88z"/>
	<path class="st3" d="M113.41,340.55c15.81,0.1,31.5,1.42,47.04,4.38c9.63,1.83,17.22,14.09,14.67,23.68c-1.14,4.29-3,5.3-7.11,3.78
		c-12.67-4.7-25.94-5.79-39.25-6.07c-18.52-0.39-37.03,0.29-55.49,2.03c-1.91,0.18-3.84,0.22-5.75,0.23
		c-10.84,0.06-17.98-10.67-13.78-20.75c1.02-2.46,3.59-2.21,5.61-2.69c2.14-0.51,3.38-1.06,1.55-3.33c-2.02-2.51-1.11-5.15-0.3-7.82
		c9.58-31.45,22.36-61.67,35.48-91.74c6.04-13.84,12.53-27.48,18.78-41.22c1-2.19,2.26-4.17,0.41-6.86
		c-1.47-2.14,1.03-3.43,2.54-4.29c6.96-3.99,20.73,0.97,23.82,8.4c1.19,2.86,0.9,5.35-0.45,8.22
		c-18.24,38.92-35.44,78.28-49.74,118.85c-1.41,4.01-2.45,8.15-3.69,12.22c-0.84,2.77-0.22,4.11,3.04,3.75
		C98.31,340.48,105.86,340.43,113.41,340.55z"/>
	<path class="st2" d="M282.22,57.54c-0.33,5.7-1.84,10-4.05,13.92c-1.87,3.32-4.97,5.09-9.02,3.79c-5.36-1.72-10.58-3.73-14.51-8.03
		c-2.61-2.86-3.58-6.05-1.84-9.78c1.56-3.34,2.92-6.78,4.55-10.08c1.54-3.12,4.19-4.84,7.68-4.25c6.32,1.07,11.33,4.53,15.41,9.36
		C281.91,54.2,282.23,56.4,282.22,57.54z"/>
	<path class="st1" d="M94.38,69.26c11.22-4.4,22.63-6.51,34.54-4.11c1.46,0.29,2.89,0.88,4.26,1.49c6,2.66,7.47,5.91,5.45,12.18
		c-2.19,6.8-6.45,12.36-10.98,17.72c-8.13,9.61-17.54,17.72-28.53,23.93c-1.64,0.93-3.34,1.75-5.73,2.07c1.17-2.34,2.26-4.71,3.52-7
		c4.69-8.53,9.56-16.96,14.12-25.55c3.3-6.21,2.26-9.92-3.43-14.15C103.64,72.88,99.38,70.5,94.38,69.26z"/>
	<path class="st1" d="M243.99,156.66c-0.13,0.16-0.25,0.32-0.38,0.48c-0.02-0.17-0.05-0.34-0.07-0.5c0.17,0.04,0.34,0.09,0.51,0.13
		C244.05,156.77,243.99,156.66,243.99,156.66z"/>
	<path class="st1" d="M233.79,265.24c-1.3,6.64-3.76,12.84-6.24,19.03c-4.43,11.07-9.27,21.95-15.11,32.37
		c-1.65,2.95-3.41,3.89-6.56,2.2c-2.94-1.58-4.92-3.04-3.28-6.98c4.73-11.36,11.53-21.46,18.57-31.42
		C224.95,275.09,228.89,269.85,233.79,265.24z"/>
	<path class="st1" d="M161.21,255.98c-4.05,13.9-20.75,48.49-26.22,54.27c-0.94-0.75-0.58-1.79-0.39-2.58
		c4.8-19.34,13.96-36.52,26.09-52.19C160.86,255.64,161.04,255.81,161.21,255.98z"/>
	<path class="st1" d="M160.69,255.47c0.17-0.14,0.35-0.27,0.52-0.41c0,0.3,0,0.61,0,0.91C161.04,255.81,160.86,255.64,160.69,255.47
		z"/>
	<path class="st1" d="M295.68,323.87c-0.3-13.72,7.78-22.54,17.54-30.43c1.41-1.13,2.4-0.68,3.59,0.28
		c5.74,4.68,11.41,9.44,16.13,15.18c6.81,8.29,7.36,19.71,1.48,28.23c-5.63,8.15-17.41,11.98-27.08,8.68
		c-7.68-2.61-10.15-9.03-11.37-16.2C295.65,327.74,295.76,325.79,295.68,323.87z"/>
	<path class="st1" d="M317.21,240c-0.08-5.85,1.18-10.53,4.04-14.74c3.66-5.39,8.85-7.07,15.03-6.04c5.98,1,9.23,4.99,10.68,10.59
		c3.15,12.09-2.99,27.1-13.64,33.68c-1,0.62-1.77,1.06-2.85,0.08C323.19,256.99,316.82,249.95,317.21,240z"/>
</g>
</svg>
